# xmcd
#
# Track frame offsets: 
#        150
#        38604
#        70340
#        99098
#        129752
#        163547
#        192425
#        243257
#        283324
#        318692
#
# Disc length: 4687 seconds
#
# Revision: 0
# Processed by: cddbd v1.5.2PL0 Copyright (c) Steve Scherf et al.
# Submitted via: ExactAudioCopyFreeDBPlugin 1.0
#
DISCID=85124d0a
DTITLE=Steve Lindeman  - The Day After Yesterday
DYEAR=2013
DGENRE=
TTITLE0=Lavender Flowers on Her Table
TTITLE1=Meet Me When the Stars Come Out
TTITLE2=Long Gone
TTITLE3=Llevame ya al Mundo de las Maravillas
TTITLE4=Aunt Jeanne
TTITLE5=I Remember
TTITLE6=Verloren
TTITLE7=October, Last
TTITLE8=With Wandering Steps
TTITLE9=Take a Jake Break
EXTD=
EXTT0=
EXTT1=
EXTT2=
EXTT3=
EXTT4=
EXTT5=
EXTT6=
EXTT7=
EXTT8=
EXTT9=
PLAYORDER=
